<?xml version="1.0" encoding="UTF-8"?>
<svg xmlns="http://www.w3.org/2000/svg" xmlns:xlink="http://www.w3.org/1999/xlink" viewBox="0 0 144 144" width="144px" height="144px">
<g id="surface339872177">
<path style=" stroke:none;fill-rule:evenodd;fill:rgb(60.784316%,34.901962%,71.372551%);fill-opacity:1;" d="M 68.710938 9.859375 C 70.746094 8.714844 73.253906 8.714844 75.289062 9.859375 C 85.351562 15.507812 115.640625 32.511719 125.710938 38.160156 C 127.746094 39.300781 129 41.410156 129 43.699219 C 129 54.996094 129 89 129 100.300781 C 129 102.585938 127.746094 104.695312 125.710938 105.839844 C 115.644531 111.488281 85.355469 128.492188 75.289062 134.140625 C 73.25 135.285156 70.742188 135.285156 68.710938 134.140625 C 58.644531 128.492188 28.355469 111.488281 18.289062 105.839844 C 16.253906 104.695312 15 102.589844 15 100.300781 C 15 89.003906 15 55 15 43.699219 C 15 41.414062 16.253906 39.304688 18.289062 38.160156 C 28.351562 32.511719 58.648438 15.507812 68.710938 9.859375 Z M 68.710938 9.859375 "/>
<path style=" stroke:none;fill-rule:evenodd;fill:rgb(60.784316%,34.901962%,71.372551%);fill-opacity:1;" d="M 15.910156 103.210938 C 15.113281 102.144531 15 101.128906 15 99.765625 C 15 88.53125 15 54.722656 15 43.488281 C 15 41.214844 16.25 39.113281 18.28125 37.980469 C 28.3125 32.363281 58.496094 15.460938 68.527344 9.839844 C 70.558594 8.703125 73.308594 8.726562 75.339844 9.863281 C 85.367188 15.480469 115.453125 32.242188 125.480469 37.855469 C 126.289062 38.3125 126.910156 38.863281 127.460938 39.585938 Z M 15.910156 103.210938 "/>
<path style=" stroke:none;fill-rule:evenodd;fill:rgb(100%,100%,100%);fill-opacity:1;" d="M 72 30 C 95.179688 30 114 48.820312 114 72 C 114 95.179688 95.179688 114 72 114 C 48.820312 114 30 95.179688 30 72 C 30 48.820312 48.820312 30 72 30 Z M 72 51 C 83.589844 51 93 60.40625 93 72 C 93 83.589844 83.589844 93 72 93 C 60.410156 93 51 83.589844 51 72 C 51 60.40625 60.40625 51 72 51 Z M 72 51 "/>
<path style=" stroke:none;fill-rule:evenodd;fill:rgb(60.784316%,34.901962%,71.372551%);fill-opacity:1;" d="M 127.453125 39.613281 C 129.003906 41.0625 128.972656 43.246094 128.972656 44.96875 C 128.972656 56.351562 128.878906 88.734375 129 100.117188 C 129.011719 101.308594 128.617188 102.558594 128.03125 103.5 L 70.777344 72 Z M 127.453125 39.613281 "/>
<path style=" stroke:none;fill-rule:evenodd;fill:rgb(100%,100%,100%);fill-opacity:1;" d="M 93 63 L 99 63 L 99 81 L 93 81 Z M 114 63 L 120 63 L 120 81 L 114 81 Z M 114 63 "/>
<path style=" stroke:none;fill-rule:evenodd;fill:rgb(100%,100%,100%);fill-opacity:1;" d="M 87 69 L 105 69 L 105 75 L 87 75 Z M 108 69 L 126 69 L 126 75 L 108 75 Z M 108 69 "/>
</g>
</svg>
