<?xml version="1.0" standalone="no"?>
<!DOCTYPE svg PUBLIC "-//W3C//DTD SVG 20010904//EN"
 "http://www.w3.org/TR/2001/REC-SVG-20010904/DTD/svg10.dtd">
<svg version="1.0" xmlns="http://www.w3.org/2000/svg"
 width="144.000000pt" height="144.000000pt" viewBox="0 0 144.000000 144.000000"
 preserveAspectRatio="xMidYMid meet">
<metadata>
Created by potrace 1.16, written by Peter Selinger 2001-2019
</metadata>
<g transform="translate(0.000000,144.000000) scale(0.018274,-0.018750)"
fill="#000000" stroke="none">
<path d="M4246 7664 c-3 -9 -6 -24 -6 -34 0 -14 -10 -21 -37 -26 -30 -6 -47
-2 -88 20 -57 31 -81 28 -90 -12 -5 -24 11 -105 30 -154 6 -16 1 -18 -36 -18
-24 0 -82 7 -128 15 -141 25 -152 -8 -39 -121 l60 -62 -63 -19 c-93 -27 -90
-42 23 -96 61 -30 107 -60 133 -88 22 -23 55 -57 72 -75 33 -33 125 -74 167
-74 19 0 22 -4 18 -30 l-4 -30 -354 0 c-316 0 -354 2 -354 16 0 8 -13 28 -28
44 l-28 28 40 13 c23 8 79 14 126 14 70 0 92 -4 123 -22 21 -13 49 -23 63 -23
97 0 -26 174 -166 234 l-65 28 58 57 c40 41 57 65 57 84 0 34 -14 42 -77 43
-38 0 -73 10 -130 37 -105 49 -181 67 -280 67 l-82 0 -6 38 c-10 59 -23 82
-45 82 -29 0 -60 -18 -60 -34 0 -21 -33 -45 -91 -65 -129 -44 -201 -99 -250
-192 -41 -77 -75 -100 -187 -132 -51 -15 -110 -36 -130 -46 l-38 -19 4 33 c2
19 -5 52 -16 78 -34 77 -125 108 -202 69 -49 -24 -80 -75 -80 -129 0 -49 11
-75 47 -115 l25 -26 -48 -53 c-76 -81 -120 -109 -171 -109 -42 0 -43 0 -43 35
0 90 -46 195 -86 195 -7 0 -29 -25 -49 -56 -20 -30 -62 -82 -93 -115 l-58 -59
-87 0 -87 0 0 -98 0 -99 -39 -42 -39 -43 -34 37 c-27 30 -43 38 -82 42 l-48 6
7 -70 c8 -79 -13 -156 -60 -217 -32 -42 -61 -114 -70 -178 l-7 -46 -36 15
c-51 22 -168 22 -208 0 -50 -26 -49 -42 6 -96 55 -53 63 -71 85 -172 18 -90
45 -132 103 -166 26 -15 48 -27 50 -29 13 -9 -118 -234 -137 -234 -10 0 -65
73 -82 110 -31 67 -86 100 -165 100 -52 0 -88 -16 -126 -57 -77 -81 -58 -213
39 -269 39 -24 52 -26 113 -22 79 6 78 7 87 -87 6 -72 -6 -124 -46 -187 l-30
-47 -33 32 c-28 26 -37 46 -51 111 -30 140 -86 232 -178 293 -29 19 -45 24
-66 18 -60 -15 -69 -51 -29 -119 28 -49 42 -153 28 -211 -6 -22 -19 -62 -31
-90 -11 -27 -22 -62 -25 -76 -5 -22 -10 -25 -35 -21 -43 6 -56 -24 -40 -91 7
-31 11 -102 9 -182 -1 -71 -3 -171 -2 -220 l0 -91 -36 4 c-52 7 -138 -16 -172
-45 -42 -35 -42 -86 -1 -107 46 -24 97 -91 144 -190 24 -50 62 -114 84 -141
46 -58 137 -112 206 -121 l44 -6 7 -82 c4 -44 11 -98 15 -118 5 -21 8 -38 7
-38 -51 12 -109 43 -136 73 -45 51 -79 67 -145 67 -67 0 -104 -18 -141 -66
-29 -37 -43 -117 -30 -168 9 -36 65 -96 103 -112 60 -26 147 -11 196 34 17 15
21 15 63 -7 24 -13 61 -42 80 -64 35 -38 91 -143 82 -153 -3 -2 -25 7 -49 20
-59 33 -150 58 -196 54 l-38 -3 1 -46 c0 -35 12 -69 47 -138 26 -51 47 -94 47
-97 0 -9 -42 -3 -73 10 -18 7 -54 32 -80 55 -55 47 -92 53 -103 19 -4 -13 -7
-54 -6 -91 2 -85 34 -181 107 -327 l55 -110 -34 0 c-24 0 -43 -9 -66 -30 -40
-37 -38 -71 5 -83 69 -20 160 -71 207 -115 60 -55 110 -121 102 -133 -3 -5 -1
-9 5 -9 5 0 15 -15 21 -34 13 -40 126 -151 194 -191 l45 -26 -14 -32 c-69
-167 30 -391 203 -457 46 -18 46 -19 22 -28 -14 -5 -40 -23 -58 -40 -44 -42
-44 -85 1 -112 17 -11 40 -20 49 -20 34 0 127 -41 170 -75 54 -44 108 -49 108
-11 0 14 -5 28 -10 31 -6 4 -7 11 -4 17 4 6 3 8 -3 5 -5 -3 -29 7 -52 23 -24
15 -69 35 -100 45 -31 9 -67 21 -81 27 -24 9 -24 10 -5 24 47 35 125 54 218
54 96 0 117 8 117 42 0 21 -29 38 -64 38 -14 0 -26 3 -26 6 0 16 95 114 110
114 10 0 32 -16 49 -35 31 -36 40 -68 21 -80 -6 -4 -33 -33 -60 -66 -56 -68
-71 -112 -71 -210 0 -149 85 -247 261 -304 85 -28 180 -79 245 -132 128 -104
457 -279 715 -381 907 -358 1853 -370 2712 -32 274 107 552 253 787 414 153
105 172 115 244 125 157 22 271 149 269 301 -1 99 -30 167 -107 256 -36 41
-65 78 -65 83 0 22 87 79 99 64 4 -4 28 -34 55 -65 42 -51 45 -58 26 -58 -49
0 -79 -42 -47 -68 6 -5 62 -12 122 -14 94 -3 119 -8 169 -31 35 -16 56 -31 50
-36 -5 -5 -36 -16 -69 -26 -73 -21 -141 -55 -177 -90 -69 -65 2 -93 83 -32 51
38 137 77 171 77 13 0 38 9 56 20 46 28 44 67 -7 113 -21 19 -49 38 -61 42
-19 6 -18 9 19 27 55 27 162 143 195 211 35 70 38 162 8 229 l-20 45 44 21
c72 35 198 163 232 235 51 109 178 219 287 248 48 13 65 26 65 49 0 27 -66 80
-99 80 l-28 0 59 117 c73 146 98 226 101 324 2 76 -9 109 -38 109 -6 0 -40
-22 -74 -50 -58 -47 -75 -55 -126 -62 -26 -4 -23 7 31 116 46 93 55 144 28
167 -22 18 -119 -3 -207 -45 -62 -30 -67 -31 -61 -12 23 79 93 169 156 202 27
14 31 13 59 -10 38 -33 91 -42 158 -28 97 21 153 87 153 183 0 96 -80 179
-173 179 -64 0 -135 -28 -168 -65 -17 -20 -31 -40 -31 -45 0 -6 -7 -10 -15
-10 -9 0 -29 -7 -44 -15 l-29 -14 9 37 c4 20 11 74 15 119 l7 82 49 10 c126
28 209 103 288 265 41 85 61 114 116 164 69 65 74 81 37 124 -22 25 -110 52
-169 51 l-51 0 0 91 c0 50 -1 148 -2 217 -2 74 2 148 9 181 16 70 3 103 -37
93 -28 -7 -43 6 -43 37 0 10 -12 43 -27 75 -23 50 -27 71 -27 144 1 75 4 93
27 132 32 55 35 102 8 117 -35 18 -77 11 -119 -20 -82 -59 -140 -165 -163
-295 -9 -52 -18 -72 -44 -98 l-32 -32 -25 35 c-51 71 -70 171 -48 250 10 35
10 35 61 31 97 -6 167 30 200 103 25 55 24 102 -3 156 -41 80 -113 111 -213
90 -71 -15 -130 -68 -141 -127 -4 -21 -15 -48 -25 -61 l-18 -23 -39 53 c-38
51 -73 112 -92 164 -8 21 -6 26 13 33 37 14 86 61 107 100 10 21 24 66 30 101
15 82 28 106 84 157 25 23 46 45 46 50 -1 53 -150 82 -245 48 -22 -8 -41 -15
-41 -15 -1 0 -5 21 -9 47 -9 63 -38 133 -79 193 -40 58 -57 123 -54 205 l3 60
-39 -1 c-30 -1 -46 -10 -78 -41 l-40 -40 -44 47 -44 47 0 92 0 91 -149 0 -150
0 -51 50 c-29 28 -82 66 -119 85 -37 18 -97 61 -134 94 -37 34 -77 61 -88 61
-11 0 -31 -11 -44 -25 -33 -32 -33 -85 -1 -146 28 -51 44 -119 28 -119 -5 0
-21 15 -35 34 -18 23 -57 48 -122 80 -103 49 -184 116 -215 176 -25 49 -27 70
-7 107 36 67 11 152 -55 193 -64 39 -160 17 -198 -45 -22 -36 -27 -113 -9
-147 11 -20 9 -20 -27 -14 -77 14 -159 61 -192 109 -69 99 -193 179 -310 197
-88 15 -163 45 -224 91 -55 41 -92 50 -102 23z m100 -89 c39 -26 151 -65 188
-65 12 0 55 -16 96 -36 56 -26 92 -53 145 -108 93 -96 124 -118 222 -156 46
-17 106 -47 134 -66 28 -20 56 -33 64 -31 7 3 15 22 19 41 6 33 10 36 41 36
31 0 36 -4 54 -45 27 -61 97 -126 205 -190 90 -54 136 -88 136 -99 0 -3 -46
-6 -102 -6 l-103 1 -20 32 c-32 51 -93 78 -193 87 -109 9 -118 14 -143 61 -34
68 -124 96 -222 68 -23 -6 -63 -33 -98 -65 -33 -30 -104 -84 -158 -120 l-99
-64 -96 0 -97 0 15 29 c9 16 27 42 41 59 14 16 25 33 25 36 0 3 -26 6 -58 6
-121 0 -229 45 -325 134 -51 48 -72 61 -130 80 -33 10 -7 26 43 26 39 0 61 -8
119 -44 39 -24 107 -55 152 -70 90 -30 234 -51 287 -43 l33 6 -34 -38 c-40
-45 -51 -72 -43 -107 l7 -25 52 45 c76 65 163 114 213 122 24 3 44 10 44 15 0
13 -36 29 -67 29 -45 0 -8 17 68 31 l67 12 -10 36 c-34 122 -183 225 -393 270
-58 13 -87 25 -107 45 -34 33 -47 74 -27 87 18 11 13 13 55 -16z m-1248 -106
c2 -21 -11 -34 -93 -88 -88 -58 -156 -124 -142 -137 3 -3 27 11 54 31 103 79
260 135 378 135 78 0 160 -24 220 -64 30 -20 66 -36 80 -36 54 0 19 -67 -51
-96 -46 -19 -71 -18 -84 6 -16 30 -97 66 -175 79 -56 8 -84 7 -144 -5 -85 -18
-176 -52 -220 -83 -16 -12 -44 -21 -63 -21 -18 -1 -46 -7 -63 -14 -27 -11 -17
-13 115 -24 80 -6 153 -14 163 -18 30 -11 -1 -24 -58 -24 -62 0 -173 -23 -213
-44 -45 -23 -177 -48 -243 -45 -58 2 -88 -9 -75 -29 3 -5 32 -12 65 -15 33 -3
65 -8 70 -12 28 -17 -10 -25 -118 -25 -135 0 -207 -17 -263 -61 -33 -26 -44
-29 -110 -28 -72 0 -73 0 -48 17 49 34 88 72 103 103 11 24 27 35 65 48 30 11
55 14 60 9 6 -6 48 11 103 40 52 27 119 55 149 61 99 21 140 49 176 120 54
107 122 164 214 181 34 6 64 20 87 40 39 35 57 35 61 -1z m1377 -73 c53 -14
116 -44 152 -73 22 -18 19 -18 -111 -18 -121 0 -137 -2 -163 -21 -15 -12 -29
-28 -31 -36 -3 -14 3 -14 50 -1 66 18 160 11 254 -18 l68 -21 -25 -19 c-45
-35 -131 -62 -214 -66 -144 -9 -273 36 -464 161 -90 60 -122 88 -110 101 2 2
38 -1 79 -7 65 -10 90 -8 180 10 122 24 264 27 335 8z m808 -6 c30 -24 40 -60
27 -95 -7 -19 -15 -25 -28 -21 -9 3 -35 1 -57 -4 -35 -8 -42 -7 -57 11 -26 31
-22 66 11 100 34 34 68 37 104 9z m-1961 -137 c54 -21 98 -51 98 -67 0 -7 -19
-23 -42 -36 -23 -13 -71 -43 -107 -68 -66 -45 -66 -45 -168 -50 -184 -8 -225
16 -67 39 44 7 96 20 116 30 37 19 76 64 65 75 -3 4 -50 9 -104 13 l-98 6 45
25 c47 25 133 48 187 49 18 1 52 -6 75 -16z m-1055 -35 c47 -44 23 -128 -41
-144 -54 -13 -115 48 -102 102 16 63 96 86 143 42z m1366 -94 c26 -9 65 -32
85 -52 l37 -36 -90 -7 c-50 -4 -136 -19 -190 -34 -76 -21 -114 -26 -158 -22
-32 3 -62 8 -65 12 -11 11 116 125 162 147 48 22 140 19 219 -8z m1332 -78
c17 -12 16 -14 -17 -20 -56 -10 -108 -78 -108 -142 0 -24 0 -24 -107 -24 -58
0 -104 2 -102 4 22 20 210 163 234 177 36 22 74 24 100 5z m905 -38 c87 -43
200 -127 200 -149 0 -5 -19 -9 -43 -9 -34 0 -49 6 -68 26 -37 41 -100 84 -122
84 -16 0 -11 -9 27 -50 25 -27 46 -52 46 -55 0 -3 -25 -5 -55 -5 -42 0 -55 4
-55 15 0 8 -11 48 -25 90 -21 67 -24 112 -6 103 3 -2 49 -24 101 -50z m-2601
-77 c46 -7 95 -10 108 -6 31 7 59 -9 78 -45 l16 -30 -177 0 c-193 0 -185 -2
-285 70 l-35 25 105 -1 c59 -1 144 -7 190 -13z m3354 -418 c8 -10 30 -54 47
-98 17 -44 41 -96 52 -115 52 -89 78 -228 64 -344 -8 -60 -25 -79 -64 -69 -19
5 -22 12 -22 62 0 131 -63 282 -157 379 l-53 54 21 49 c19 44 68 99 88 99 4 0
15 -8 24 -17z m-5305 -25 c17 -18 38 -50 47 -71 l16 -38 -60 -64 c-92 -99
-150 -243 -151 -372 0 -48 -2 -53 -26 -59 -40 -10 -55 13 -61 97 -8 105 11
203 58 298 21 44 48 103 59 131 48 122 64 133 118 78z m5261 -328 c17 -31 37
-83 46 -115 17 -67 20 -165 5 -165 -5 0 -10 4 -10 9 0 6 -38 50 -85 99 l-85
90 0 118 0 118 49 -48 c28 -27 64 -75 80 -106z m-5217 -146 c-26 -27 -66 -71
-89 -99 l-42 -50 -1 55 c0 117 50 247 128 326 l47 49 3 -116 3 -116 -49 -49z
m-361 84 l39 -22 0 -73 0 -72 -37 22 -38 22 31 -40 c37 -47 54 -93 54 -147 l0
-40 -32 19 c-35 20 -46 44 -92 194 -20 67 -32 90 -56 107 -34 25 -39 48 -12
56 32 9 104 -4 143 -26z m6026 16 c4 -11 -4 -25 -25 -43 -36 -30 -51 -62 -82
-179 -17 -63 -29 -88 -52 -107 -40 -34 -48 -32 -48 15 0 50 23 106 57 143 28
29 20 37 -13 12 -10 -8 -23 -15 -27 -15 -4 0 -7 33 -5 73 l3 72 45 23 c55 27
137 31 147 6z m-3667 -671 c0 -404 -4 -631 -10 -643 -17 -31 -71 -38 -310 -42
l-225 -3 0 580 c1 599 4 645 42 676 11 10 67 15 202 20 158 4 193 8 231 26 25
11 51 18 58 15 9 -3 12 -138 12 -629z m1245 612 c35 -12 83 -15 209 -13 119 1
168 -1 179 -10 31 -26 34 -121 26 -697 -4 -313 -8 -570 -8 -570 -1 0 -90 1
-198 2 -229 3 -274 8 -303 31 -21 17 -21 20 -21 627 0 336 3 618 6 628 9 21
49 22 110 2z m1035 -452 c0 -258 -3 -546 -7 -641 -6 -162 -8 -174 -27 -185
-14 -8 -92 -11 -241 -12 -157 0 -226 -4 -242 -12 -12 -7 -29 -10 -38 -7 -14 6
-15 20 -10 108 3 55 7 332 9 614 l2 513 26 26 c26 25 27 25 214 29 132 2 203
7 234 17 88 29 80 76 80 -450z m-3280 431 c52 -13 91 -15 193 -10 143 7 179
-3 198 -51 6 -17 9 -178 7 -427 -1 -221 -1 -493 1 -605 l3 -204 -48 8 c-27 4
-135 11 -239 14 -159 5 -196 9 -218 24 l-27 17 -2 283 c-3 525 4 951 15 965 6
8 20 11 31 8 12 -3 50 -12 86 -22z m1117 -42 c17 -35 18 -73 16 -640 -2 -332
-6 -608 -9 -613 -9 -14 -32 9 -55 53 -19 36 -19 62 -19 630 1 390 4 596 11
604 16 19 35 7 56 -34z m103 39 c10 -7 16 -41 20 -126 7 -128 11 -135 70 -135
134 -1 161 -79 31 -88 -95 -7 -92 8 -94 -377 l-2 -327 24 -19 c16 -13 39 -19
78 -19 66 0 93 -13 93 -45 0 -33 -28 -46 -98 -43 -92 4 -98 -5 -107 -158 -6
-113 -9 -126 -29 -139 -16 -10 -80 -14 -281 -15 -344 -3 -345 -3 -345 14 0 8
8 17 18 20 9 3 128 7 263 10 158 2 254 8 268 15 53 29 52 20 57 578 3 285 1
592 -5 683 -5 91 -7 168 -4 173 6 10 25 9 43 -2z m760 -5 c0 -7 -7 -33 -15
-56 -13 -36 -15 -138 -15 -676 l0 -633 24 -28 24 -28 274 -6 c257 -5 308 -10
308 -29 0 -28 -35 -31 -334 -28 -267 3 -307 5 -322 19 -12 12 -18 45 -23 124
-6 101 -8 108 -34 131 -22 19 -40 24 -83 24 -41 0 -59 5 -74 20 -11 11 -20 24
-20 29 0 23 35 41 91 47 91 10 98 20 110 142 5 57 8 202 7 323 -4 263 -2 259
-119 268 -59 5 -74 10 -86 28 -23 35 9 59 91 67 99 11 106 20 115 147 4 58 11
110 15 117 10 17 66 15 66 -2z m1418 -46 l23 -45 -2 -575 c-1 -316 -4 -587 -6
-602 -6 -39 -28 -35 -58 11 l-26 38 2 599 c1 329 4 605 7 612 9 25 37 7 60
-38z m116 37 c15 -11 19 -29 20 -110 1 -122 12 -136 111 -146 69 -7 87 -20 83
-56 -4 -28 -44 -45 -110 -45 -89 0 -87 11 -85 -362 2 -367 -3 -347 98 -355 63
-5 109 -24 109 -43 0 -6 -9 -19 -20 -30 -16 -16 -33 -20 -88 -20 -92 0 -96 -6
-111 -155 -8 -77 -18 -125 -27 -135 -29 -30 -664 -25 -664 5 0 7 8 16 18 20 9
4 141 6 293 5 341 -1 311 -19 321 188 12 257 9 1140 -3 1183 -7 20 -9 45 -6
53 8 19 37 21 61 3z m-3811 -3 c3 -3 -1 -24 -9 -47 -12 -34 -14 -143 -11 -681
1 -353 7 -649 11 -659 18 -39 42 -42 333 -45 216 -3 284 -6 292 -16 28 -33
-10 -37 -333 -34 -242 2 -318 6 -328 16 -8 8 -15 55 -19 133 -3 66 -11 125
-17 131 -6 6 -37 13 -69 15 -93 7 -132 29 -117 67 9 22 52 36 113 36 41 0 62
5 71 15 20 24 25 633 6 679 l-14 34 -86 3 c-92 4 -112 14 -102 52 7 31 25 39
105 46 86 8 102 28 111 145 4 47 12 92 20 100 13 16 32 21 43 10z m107 -46 c1
-29 1 -311 0 -627 -1 -469 -3 -579 -15 -601 -17 -33 -43 -55 -53 -46 -12 13
-4 1235 9 1273 9 30 31 52 52 53 4 0 7 -24 7 -52z m2255 25 c4 -10 6 -285 6
-612 -1 -552 -3 -597 -19 -625 -10 -17 -26 -32 -35 -34 -16 -3 -17 35 -15 615
3 573 4 621 21 646 20 31 32 34 42 10z m-3245 -209 c4 -22 11 -29 30 -30 43
-2 50 -4 50 -14 0 -5 -24 -47 -54 -92 -104 -161 -188 -316 -193 -357 -7 -48
-3 -50 30 -17 23 23 91 45 103 33 3 -2 2 -15 -1 -28 -4 -17 -20 -30 -52 -43
-63 -26 -159 -124 -221 -224 -28 -46 -68 -99 -90 -118 l-40 -34 -15 43 c-14
41 -13 44 10 77 96 135 122 312 57 389 -30 36 -31 76 -4 91 26 14 37 7 58 -38
12 -26 24 -38 42 -40 23 -3 32 8 82 95 31 54 81 148 111 209 30 62 58 117 62
123 11 19 30 6 35 -25z m5612 -102 c37 -75 91 -175 119 -220 65 -107 89 -107
132 2 1 5 15 6 30 2 33 -8 36 -35 7 -61 -11 -10 -18 -20 -16 -23 3 -2 -2 -22
-10 -44 -32 -92 -5 -230 65 -331 l40 -56 -16 -40 -16 -40 -34 27 c-20 14 -63
69 -98 122 -70 108 -154 192 -220 221 -25 11 -45 24 -45 29 0 4 -3 15 -6 24
-11 27 59 21 94 -9 38 -31 42 -31 42 2 0 31 -71 168 -176 336 -41 66 -71 124
-67 128 4 4 22 9 38 11 24 2 31 8 33 31 2 17 9 27 20 27 12 0 37 -41 84 -138z
m-6075 -82 c17 -10 37 -28 43 -40 9 -17 7 -24 -17 -44 -23 -20 -28 -32 -27
-70 1 -42 -1 -46 -28 -51 -72 -16 -138 34 -138 106 0 22 5 49 11 60 14 27 68
59 99 59 14 0 39 -9 57 -20z m6518 4 c35 -16 65 -65 65 -106 0 -34 -36 -87
-63 -94 -14 -3 -38 -4 -53 -2 -26 3 -29 6 -26 35 4 36 -12 71 -39 91 -15 11
-16 17 -7 38 12 25 51 53 76 54 8 0 29 -7 47 -16z m-5875 -87 c45 -22 45 -22
48 -80 l3 -58 -30 15 c-16 9 -54 16 -84 16 -44 0 -62 -6 -94 -29 -40 -29 -113
-46 -113 -26 0 20 90 164 112 180 29 21 95 13 158 -18z m5338 -9 c28 -41 82
-141 82 -153 0 -3 -16 -5 -36 -5 -26 0 -46 8 -70 30 -55 48 -143 52 -198 9
l-26 -20 0 59 c0 58 1 61 35 82 46 29 80 38 137 39 44 1 49 -1 76 -41z m770
-175 c-31 -50 -31 -161 1 -247 14 -40 21 -83 21 -132 0 -67 -2 -74 -27 -93
l-26 -21 -44 81 c-23 44 -52 94 -64 110 -28 40 -28 139 1 207 23 53 76 111
125 136 39 20 43 6 13 -41z m-7021 18 c77 -56 115 -132 115 -230 1 -57 -3 -72
-30 -111 -16 -25 -45 -75 -63 -112 l-33 -68 -28 27 c-25 24 -28 33 -28 94 0
40 8 91 21 130 11 35 23 90 26 121 5 48 2 66 -21 111 -14 30 -26 57 -26 60 0
15 29 5 67 -22z m897 -12 c32 -15 60 -72 51 -106 -10 -42 -49 -73 -92 -73 -49
0 -78 21 -93 65 -27 81 55 150 134 114z m5285 -15 c42 -35 44 -98 5 -135 -70
-66 -184 6 -153 98 20 62 96 81 148 37z m-5445 -171 l34 -38 -46 -25 c-79 -43
-161 -101 -218 -153 -53 -48 -54 -48 -54 -23 0 86 160 276 232 276 10 0 33
-17 52 -37z m5618 8 c64 -41 168 -190 168 -242 0 -18 -9 -13 -60 34 -50 47
-198 148 -233 160 -17 5 37 76 59 77 11 0 41 -13 66 -29z m-240 -66 c77 -4 90
-28 84 -155 -3 -52 -5 -128 -5 -168 l-1 -72 -41 20 c-26 14 -55 20 -82 18 -41
-3 -42 -4 -45 -41 -2 -28 6 -59 32 -114 20 -41 36 -77 36 -79 0 -2 -29 -3 -65
-1 -36 1 -65 4 -65 7 0 3 7 61 15 130 8 69 18 209 22 312 l6 186 28 -20 c18
-13 46 -22 81 -23z m-5133 -420 c7 -61 14 -124 17 -142 l6 -31 -61 -4 c-34 -1
-61 -2 -61 -1 0 1 16 34 35 74 23 49 35 88 35 116 0 38 -3 43 -27 49 -24 6
-59 -2 -124 -30 -14 -6 -17 12 -23 152 -9 206 -3 224 87 236 27 3 58 13 70 21
l22 15 6 -173 c4 -95 12 -222 18 -282z m-254 206 c4 -72 4 -140 0 -153 -19
-68 -39 -95 -110 -144 l-73 -52 -13 29 c-11 27 -7 38 39 132 29 56 65 126 82
156 17 30 28 57 25 59 -10 10 -94 -81 -154 -165 l-59 -82 -12 47 c-6 26 -14
53 -16 61 -10 32 230 241 277 241 4 0 10 -58 14 -129z m5633 82 c29 -20 82
-67 117 -105 69 -75 71 -85 41 -161 l-11 -28 -64 90 c-62 88 -137 168 -148
157 -3 -3 17 -45 45 -93 61 -106 112 -212 112 -234 0 -8 -6 -23 -13 -33 -12
-16 -19 -13 -90 40 -101 75 -112 106 -101 290 l7 125 26 -6 c14 -3 50 -22 79
-42z m505 -2 c14 -17 37 -61 52 -100 l27 -69 -48 -75 c-27 -42 -52 -76 -56
-76 -4 -1 -9 7 -12 17 -4 10 -26 49 -51 87 -25 37 -45 77 -45 89 0 65 53 156
90 156 10 0 29 -13 43 -29z m-6665 -8 c45 -66 53 -136 20 -178 -12 -15 -36
-54 -53 -86 l-31 -59 -52 77 -53 76 16 46 c8 25 29 70 45 99 26 44 35 52 60
52 20 0 34 -8 48 -27z m6434 -120 c200 -212 282 -514 227 -838 -10 -58 -23
-85 -39 -85 -4 0 -15 44 -25 98 -37 214 -96 428 -131 474 l-16 23 6 -25 c25
-99 36 -172 36 -243 l0 -82 -24 58 c-32 77 -81 156 -134 217 -37 43 -43 54
-37 80 4 16 11 32 16 36 5 3 19 24 31 47 17 33 22 65 25 147 6 150 8 152 65
93z m-6730 -30 c73 -70 136 -151 170 -216 l24 -48 -17 -67 c-10 -37 -18 -78
-19 -92 -1 -18 -8 -7 -24 36 -21 56 -76 155 -61 110 3 -11 10 -61 15 -110 4
-50 17 -111 28 -136 13 -30 21 -82 26 -158 4 -62 10 -121 12 -130 3 -9 -21 11
-54 45 -105 108 -182 298 -182 448 0 24 7 74 15 111 18 77 21 194 6 223 -12
22 -14 41 -5 41 3 0 33 -26 66 -57z m498 -30 c1 -110 13 -165 51 -222 16 -24
29 -52 29 -62 0 -10 -19 -39 -42 -66 -54 -62 -105 -142 -135 -212 l-24 -56 5
110 c2 61 12 134 21 163 22 72 11 78 -19 11 -29 -64 -77 -249 -106 -408 -11
-63 -22 -116 -25 -119 -31 -31 -60 110 -58 288 1 181 45 343 130 483 41 68
139 177 159 177 11 0 14 -20 14 -87z m6735 65 c-17 -49 -17 -170 0 -246 36
-159 -8 -342 -119 -495 -47 -67 -113 -133 -103 -105 3 9 9 68 12 130 5 80 13
128 27 163 12 28 24 86 29 130 4 44 10 94 14 110 6 27 5 28 -6 10 -7 -11 -27
-52 -44 -92 l-32 -72 -13 62 c-26 127 -26 125 27 207 52 80 182 220 203 220 8
0 10 -7 5 -22z m-4149 -133 c47 -62 46 -62 -261 -70 -249 -7 -279 -6 -293 9
-13 13 -14 20 -6 34 10 15 37 18 210 23 136 5 213 11 244 22 66 22 76 20 106
-18z m1114 18 c8 -3 106 -8 218 -12 211 -6 227 -10 219 -51 -2 -13 -38 -15
-267 -12 -146 2 -273 6 -282 8 -26 8 -22 40 8 63 25 19 58 21 104 4z m-2285
-8 c29 -10 89 -14 218 -15 132 0 187 -4 212 -14 36 -15 40 -23 27 -42 -8 -13
-529 -13 -549 -1 -19 12 -16 38 9 64 25 27 30 27 83 8z m3450 -16 c14 -17 24
-37 22 -43 -3 -8 -90 -11 -303 -11 l-299 0 0 24 c0 35 29 40 239 40 99 0 197
4 216 9 68 19 96 14 125 -19z m-4370 -29 c3 -5 -5 -25 -19 -43 -31 -40 -116
-221 -116 -246 0 -40 -42 -178 -75 -246 -42 -87 -119 -176 -189 -216 -28 -16
-54 -29 -58 -29 -13 0 52 170 107 285 30 61 79 148 110 195 104 155 -60 -26
-238 -263 l-96 -127 -7 37 c-9 46 7 128 39 196 56 123 225 287 419 410 93 58
112 65 123 47z m5342 -70 c263 -173 423 -380 423 -542 0 -70 -12 -74 -50 -21
-94 134 -328 418 -337 410 -2 -2 19 -37 46 -78 87 -130 235 -459 211 -467 -19
-7 -97 43 -145 93 -79 81 -136 202 -169 360 -16 76 -71 205 -116 271 -15 23
-26 45 -22 48 15 15 48 0 159 -74z m-3835 -7 c68 -65 -4 -179 -74 -116 -26 23
-24 90 4 120 27 29 36 29 70 -4z m-1423 -149 c57 -12 42 -50 -82 -204 -70 -88
-145 -168 -169 -181 -14 -7 -13 1 7 54 13 34 39 114 59 177 20 63 41 121 45
129 5 8 26 17 47 21 54 11 58 11 93 4z m5147 -18 c13 -18 37 -84 91 -251 16
-49 33 -99 38 -110 16 -36 -84 56 -141 129 -30 39 -77 99 -104 134 -49 62 -63
105 -37 116 6 3 41 4 76 3 47 -2 67 -8 77 -21z m-102 -211 c55 -99 111 -159
195 -214 l60 -38 -42 -5 c-102 -12 -167 -75 -175 -172 -12 -147 142 -242 278
-171 28 14 33 14 69 -4 103 -53 144 -118 145 -231 1 -71 0 -75 -22 -78 -27 -4
-44 -41 -41 -92 1 -19 1 -46 0 -60 l-2 -25 -17 30 c-13 24 -17 55 -17 145 0
63 -3 120 -7 126 -4 6 -22 9 -39 6 -41 -6 -104 -68 -148 -145 l-33 -58 -36 61
c-45 73 -106 138 -139 146 -15 4 -30 0 -42 -10 -16 -15 -18 -28 -13 -106 5
-100 -10 -160 -51 -198 l-22 -21 -65 45 c-79 55 -102 54 -112 -1 -4 -22 -7
-176 -7 -341 l-1 -302 -55 -26 c-52 -26 -94 -69 -96 -98 -1 -39 -21 45 -20 87
3 93 -59 164 -148 173 -67 6 -95 -2 -140 -43 -108 -98 -53 -275 93 -295 40 -5
41 -6 44 -45 3 -50 -1 -55 -70 -89 -100 -48 -187 -154 -188 -229 0 -71 64
-147 125 -147 26 0 39 -7 56 -31 l22 -32 -22 -18 c-15 -13 -39 -19 -71 -19
-26 0 -69 -7 -96 -15 -37 -11 -50 -12 -57 -2 -7 10 -4 111 5 172 7 47 -96 23
-169 -39 l-30 -26 -5 129 c-5 141 -19 181 -60 181 -32 0 -134 -109 -194 -207
-45 -73 -51 -79 -62 -62 -7 11 -23 19 -38 19 -22 0 -9 18 109 143 405 428 680
816 902 1272 157 325 284 699 346 1023 l12 63 22 -21 c12 -11 43 -58 69 -105z
m-4944 -120 c165 -678 506 -1320 1014 -1904 319 -367 734 -731 1129 -992 70
-46 125 -85 122 -87 -4 -4 -164 12 -247 25 -34 5 -37 8 -43 47 -9 55 -50 145
-82 179 -34 34 -86 37 -120 5 l-23 -22 -158 163 c-142 148 -202 224 -202 258
0 6 -12 25 -26 42 -28 34 -80 43 -90 16 -10 -25 -19 -18 -67 58 -59 93 -138
181 -177 197 -28 12 -34 11 -52 -8 -19 -18 -22 -37 -27 -158 l-6 -137 -30 25
c-45 37 -110 68 -146 68 l-31 0 8 -62 c7 -60 7 -118 0 -125 -1 -2 -27 1 -56 7
-29 5 -72 10 -94 10 -56 0 -83 19 -67 48 14 26 47 45 62 36 20 -12 78 7 108
35 26 25 31 36 31 78 0 105 -85 211 -222 276 -71 34 -86 54 -74 102 5 21 12
25 47 25 56 0 102 22 135 66 25 33 29 46 29 104 0 58 -4 71 -29 104 -34 45
-79 66 -141 66 -53 0 -88 -16 -127 -57 -27 -29 -50 -99 -41 -131 2 -10 -3 -31
-11 -47 -13 -25 -16 -27 -16 -9 0 29 -63 91 -100 99 l-30 7 0 301 c0 267 -6
367 -23 383 -7 7 -84 -33 -123 -62 -39 -30 -46 -30 -71 4 -35 47 -46 99 -41
187 6 94 -1 115 -42 115 -39 0 -81 -38 -139 -126 l-49 -75 -35 58 c-49 80
-105 132 -150 140 -27 4 -37 2 -38 -8 -1 -8 -2 -63 -3 -124 -1 -72 -7 -120
-16 -140 -14 -30 -14 -29 -20 40 -6 79 -12 92 -47 106 -25 9 -25 12 -21 77 3
37 13 84 22 104 23 48 77 101 126 123 36 16 42 17 80 1 52 -21 95 -20 145 3
48 22 69 44 90 94 21 50 19 103 -6 154 -25 51 -59 78 -122 94 l-47 11 58 38
c69 45 142 122 172 181 13 24 39 68 59 98 l36 55 8 -40 c5 -21 26 -111 47
-199z m-1298 189 c31 -5 37 -11 42 -38 15 -82 123 -261 200 -335 30 -30 36
-42 36 -78 0 -42 -1 -43 -27 -37 -87 21 -178 102 -233 207 -66 125 -111 194
-140 215 -33 25 -40 58 -12 65 26 7 93 7 134 1z m7557 -8 c10 -12 3 -24 -36
-63 -28 -29 -73 -93 -108 -158 -33 -61 -80 -132 -105 -158 -46 -50 -123 -97
-160 -97 -17 0 -20 6 -20 45 0 34 5 48 20 57 59 37 171 211 205 318 10 30 20
58 22 63 2 4 42 7 87 7 60 0 87 -4 95 -14z m-584 -450 c9 -33 19 -64 24 -69 4
-4 22 8 40 28 17 20 31 33 31 30 0 -3 -11 -67 -25 -141 -23 -123 -33 -274 -19
-274 3 0 20 11 37 24 18 13 51 33 73 45 l42 20 4 -34 c4 -32 0 -37 -53 -74
-87 -62 -169 -200 -169 -287 0 -12 -9 -32 -19 -45 -19 -23 -20 -23 -26 -4 -4
11 -23 56 -43 100 -19 44 -35 95 -35 113 1 17 2 67 3 110 2 105 -24 174 -90
236 -27 25 -64 53 -83 62 -33 16 -34 18 -21 43 8 14 14 34 14 44 0 15 3 16 23
6 46 -25 108 -83 142 -135 20 -30 41 -54 47 -54 14 0 3 127 -21 246 -10 49
-17 90 -16 92 1 1 12 -22 25 -53 12 -30 26 -55 31 -55 15 0 28 37 34 96 11
103 17 116 27 50 4 -33 15 -87 23 -120z m-6494 112 c1 -63 20 -140 35 -145 6
-2 21 24 34 57 12 33 24 59 26 57 2 -1 -5 -45 -16 -96 -28 -136 -37 -255 -19
-249 8 2 22 19 31 38 21 40 91 114 136 142 18 11 34 19 36 17 1 -2 9 -22 17
-44 l15 -40 -35 -17 c-58 -28 -105 -72 -136 -129 -29 -52 -30 -60 -31 -184 -1
-127 -2 -131 -38 -207 -20 -42 -36 -83 -36 -92 0 -8 -4 -17 -9 -20 -15 -9 -30
18 -40 70 -28 141 -96 241 -211 306 -39 23 -45 36 -32 70 7 16 12 15 62 -8 30
-14 69 -36 86 -49 32 -24 32 -24 37 -3 7 27 -8 162 -33 290 -11 56 -18 103
-16 105 2 2 14 -10 26 -26 12 -17 27 -31 35 -31 14 0 55 153 55 209 0 17 5 31
10 31 6 0 10 -24 11 -52z m514 -70 c60 -47 66 -125 13 -179 -24 -24 -38 -29
-77 -29 -53 0 -84 18 -106 60 -19 37 -19 73 0 110 31 59 118 79 170 38z m5524
7 c30 -15 61 -69 61 -105 0 -29 -26 -76 -52 -94 -76 -54 -184 41 -157 138 18
66 85 94 148 61z m-2097 -20 c11 -4 13 -118 12 -630 -2 -705 5 -651 -82 -676
-35 -11 -108 -13 -294 -11 -204 2 -254 0 -284 -13 -20 -8 -46 -15 -58 -15 -21
0 -21 2 -23 278 -1 153 2 284 7 292 25 40 75 -71 64 -142 -5 -31 -3 -36 17
-41 35 -10 122 -8 138 2 17 11 2 42 -33 65 -16 10 -29 32 -36 58 -6 24 -27 93
-45 153 -114 370 -105 331 -105 473 0 143 6 160 58 164 15 1 142 2 282 3 240
0 258 1 305 22 56 25 58 25 77 18z m-1435 -22 c41 -16 86 -18 320 -18 l271 0
27 -25 27 -25 -5 -145 c-4 -83 -13 -168 -22 -200 -8 -30 -38 -143 -65 -250
-46 -178 -53 -197 -82 -221 -48 -40 -34 -61 39 -57 l58 3 0 77 c0 66 3 81 22
99 28 28 53 19 54 -21 0 -16 0 -122 0 -235 0 -113 0 -223 0 -245 l-1 -40 -312
3 c-264 2 -319 5 -349 19 -20 9 -39 21 -43 26 -8 13 -16 1259 -8 1267 8 8 18
6 69 -12z m1681 -19 c20 -14 22 -24 22 -98 0 -90 13 -142 39 -155 9 -5 41 -12
71 -16 81 -10 90 -14 90 -39 0 -34 -17 -44 -90 -52 -47 -5 -70 -13 -87 -30
l-23 -23 0 -319 c0 -380 -6 -361 109 -373 80 -9 101 -20 101 -55 0 -31 -27
-44 -92 -44 -92 0 -101 -13 -118 -179 -6 -62 -15 -100 -25 -110 -14 -14 -70
-16 -440 -20 -390 -3 -425 -2 -431 14 -15 37 6 40 391 45 359 5 375 6 402 26
22 17 30 33 36 74 4 29 6 330 5 669 -3 520 -5 621 -18 649 -13 29 -13 34 0 42
21 13 32 12 58 -6z m-1905 -16 c2 -7 -5 -31 -17 -53 -20 -39 -21 -52 -21 -565
-1 -591 5 -794 23 -812 9 -9 99 -12 365 -10 193 1 367 -1 386 -6 39 -9 50 -26
24 -37 -10 -4 -195 -11 -412 -16 -468 -12 -431 -21 -431 110 0 119 -13 159
-55 177 -19 8 -52 14 -73 14 -55 0 -102 18 -102 40 0 30 27 42 112 51 44 4 86
13 92 19 7 7 12 117 14 339 l3 329 -24 28 c-23 26 -31 28 -95 29 -79 1 -114
20 -105 56 7 26 41 39 99 39 60 0 112 23 118 52 3 13 8 64 11 113 6 96 17 115
61 115 12 0 24 -6 27 -12z m1786 -32 c18 -28 20 -58 27 -326 8 -351 -3 -950
-19 -950 -11 0 -31 23 -52 63 -13 23 -16 111 -15 633 0 334 3 610 5 615 9 14
34 -2 54 -35z m-1699 -605 l0 -619 -26 -31 c-14 -17 -30 -31 -35 -31 -5 0 -9
253 -9 618 0 597 1 618 20 650 11 17 27 32 35 32 13 0 15 -73 15 -619z m-2744
408 c50 -47 51 -121 2 -169 -25 -25 -38 -30 -79 -30 -39 0 -55 5 -79 28 -57
50 -49 144 14 184 41 25 108 19 142 -13z m7337 -9 c43 -49 36 -130 -17 -172
-26 -22 -58 -23 -96 -3 -42 22 -60 53 -60 106 0 40 5 53 32 79 28 28 36 32 72
27 29 -4 49 -15 69 -37z m-810 -282 c4 -46 16 -125 27 -177 l20 -93 -31 -58
c-17 -32 -45 -72 -63 -89 l-33 -32 -6 83 c-3 46 -15 111 -25 145 -22 71 -17
123 19 195 25 51 67 108 78 108 4 0 11 -37 14 -82z m-5787 12 c18 -30 40 -82
49 -114 14 -56 14 -63 -6 -125 -11 -36 -23 -104 -26 -150 l-6 -85 -34 40 c-19
21 -47 64 -62 94 l-29 55 24 120 c13 66 24 144 24 173 0 70 19 67 66 -8z
m5487 0 c88 -81 143 -218 168 -419 l12 -99 -39 -46 c-21 -25 -41 -46 -45 -46
-3 0 -9 37 -13 83 -12 150 -54 296 -90 310 -11 4 -11 -1 0 -31 8 -22 13 -81
13 -142 l0 -105 -29 62 c-15 34 -43 83 -61 109 l-32 47 21 83 c14 51 22 112
22 163 0 45 4 81 9 81 5 0 34 -22 64 -50z m-5183 -34 c0 -71 22 -193 40 -225
5 -10 1 -26 -13 -46 -12 -16 -41 -66 -64 -110 l-42 -80 -1 103 c0 69 5 114 15
138 22 53 -5 39 -33 -17 -27 -55 -50 -156 -58 -266 -4 -46 -10 -83 -13 -83 -3
1 -24 24 -45 52 l-39 50 16 112 c20 146 58 260 110 338 37 56 95 108 118 108
5 0 9 -33 9 -74z m5684 -165 c40 -123 50 -189 50 -321 0 -190 -46 -351 -112
-395 -21 -14 -47 -32 -59 -40 -20 -16 -20 -13 7 67 31 89 60 261 60 351 0 70
-16 109 -44 105 -18 -3 -20 -9 -17 -58 3 -78 -28 -167 -92 -263 -56 -83 -99
-190 -112 -279 -11 -79 17 -61 53 35 37 95 87 187 104 187 21 0 -1 -93 -42
-178 -66 -138 -49 -157 63 -67 123 99 252 162 391 192 72 15 188 13 234 -4 22
-8 20 -11 -34 -48 -98 -67 -208 -185 -243 -258 -38 -79 -98 -135 -197 -185
l-72 -35 -276 264 c-157 150 -299 277 -328 293 -28 16 -74 35 -102 41 l-51 11
-3 210 c-4 236 5 414 20 414 5 0 38 -28 72 -62 110 -111 213 -359 241 -581 10
-85 17 -114 31 -124 30 -22 39 -10 47 63 13 124 58 223 143 315 97 106 150
203 173 324 7 33 17 77 22 98 10 37 11 38 29 22 11 -10 30 -52 44 -94z m-6173
13 c32 -161 76 -250 179 -360 90 -97 150 -238 150 -354 0 -33 3 -40 20 -40 30
0 48 38 55 120 21 234 156 540 277 627 l46 34 7 -93 c3 -51 5 -192 3 -313 l-3
-220 -45 -7 c-93 -14 -111 -27 -413 -313 -163 -154 -301 -281 -306 -283 -5 -2
-36 9 -67 25 -84 41 -159 114 -199 192 -36 72 -158 198 -248 258 -60 39 -51
46 66 51 183 9 357 -56 543 -205 37 -29 73 -53 80 -53 22 0 17 49 -10 95 -30
50 -66 155 -66 191 0 27 0 27 21 8 23 -21 79 -134 104 -211 16 -51 27 -63 40
-43 9 14 -13 123 -36 186 -11 30 -45 91 -75 136 -64 97 -96 190 -93 268 3 48
1 55 -16 55 -36 0 -47 -41 -41 -150 7 -121 35 -259 69 -343 l25 -62 -33 29
c-18 16 -47 37 -64 47 -73 43 -126 309 -101 505 18 143 76 315 103 306 7 -2
19 -39 28 -83z m-386 6 c55 -24 134 -89 168 -137 25 -36 27 -46 21 -92 l-7
-51 -34 30 c-53 47 -69 40 -29 -13 41 -55 57 -97 77 -194 10 -52 30 -125 42
-163 l24 -67 -59 19 c-33 10 -68 18 -78 18 -24 0 -65 53 -85 109 -8 23 -22 83
-30 132 -22 125 -60 267 -90 334 -14 32 -25 69 -25 82 0 22 3 24 33 18 17 -4
50 -15 72 -25z m6965 6 c0 -13 -12 -49 -26 -80 -28 -61 -76 -246 -95 -365 -7
-44 -24 -98 -43 -135 -31 -61 -32 -61 -96 -77 -36 -9 -74 -19 -86 -22 -20 -7
-19 -5 7 75 15 46 33 114 39 151 11 70 55 172 84 196 9 8 16 17 16 22 0 18
-25 8 -57 -23 -33 -32 -33 -32 -33 -7 0 13 -3 40 -6 59 -5 32 -1 41 41 88 74
82 168 139 233 141 17 1 22 -5 22 -23z m197 -265 c-25 -109 -94 -235 -180
-328 -36 -39 -44 -43 -89 -43 l-49 0 39 48 c52 63 82 115 82 141 0 26 -17 27
-45 1 l-21 -20 7 72 c14 126 13 125 69 130 34 4 70 17 117 46 40 25 71 38 77
32 5 -5 2 -37 -7 -79z m-7407 49 c49 -33 143 -65 165 -56 16 6 22 -18 34 -122
4 -40 4 -72 1 -72 -4 0 -15 9 -25 20 -50 55 -47 -10 4 -86 22 -32 49 -70 59
-84 l20 -25 -46 3 c-38 3 -55 11 -85 40 -48 46 -111 137 -143 205 -27 60 -58
183 -49 197 9 15 16 13 65 -20z m1807 -340 c69 -42 63 -151 -10 -186 -103 -49
-205 72 -136 160 38 49 93 58 146 26z m3840 0 c69 -42 63 -151 -10 -186 -103
-49 -205 72 -136 160 38 49 93 58 146 26z m-2718 -60 c40 -18 66 -20 316 -20
312 0 356 -8 309 -54 -13 -14 -51 -16 -257 -16 -133 0 -299 3 -369 7 -144 7
-153 14 -99 72 34 36 42 37 100 11z m1541 -22 c17 -23 27 -45 22 -50 -4 -4
-176 -9 -381 -11 -344 -2 -375 -1 -385 15 -24 39 0 43 312 48 245 5 303 9 332
22 53 25 67 22 100 -24z m-3011 -64 c28 -23 31 -31 31 -84 0 -33 -5 -70 -11
-83 -12 -26 -47 -47 -79 -47 -29 0 -69 41 -76 77 -6 29 -3 34 21 43 23 9 25
13 15 25 -28 34 -94 6 -113 -48 -17 -47 62 -140 128 -153 22 -4 59 0 100 11
112 31 232 2 344 -80 68 -50 109 -106 117 -156 7 -50 -6 -62 -77 -70 -56 -6
-68 -12 -96 -43 -37 -40 -44 -87 -17 -124 24 -35 53 -45 150 -52 l91 -6 124
-80 c693 -450 1408 -597 2134 -439 359 78 673 212 985 420 129 86 174 104 262
105 60 0 118 45 118 92 0 63 -58 128 -115 128 -32 0 -66 27 -78 62 -13 36 13
86 73 141 84 78 145 100 280 101 58 0 128 -1 157 -4 47 -4 56 -1 90 26 45 37
83 89 83 116 0 33 -49 69 -89 66 -42 -4 -52 -24 -17 -38 22 -8 26 -16 26 -49
0 -46 -20 -71 -56 -71 -35 0 -121 74 -129 110 -14 65 64 130 156 130 86 0 130
-33 444 -332 312 -297 335 -325 335 -409 0 -128 -161 -303 -280 -303 -98 0
-118 18 -362 326 -121 154 -231 289 -242 300 -41 40 -127 72 -192 72 -103 0
-224 -75 -224 -139 0 -33 38 -59 107 -74 54 -13 64 -20 159 -115 55 -55 181
-196 281 -312 192 -225 213 -259 213 -356 0 -119 -98 -222 -228 -239 -65 -9
-127 -41 -266 -137 -382 -262 -861 -470 -1314 -568 -228 -49 -372 -65 -647
-71 -373 -8 -642 23 -992 112 -438 112 -942 339 -1179 531 -73 59 -151 101
-249 134 -130 44 -188 87 -219 162 -19 44 -20 139 -3 186 7 18 107 141 222
274 333 384 358 408 438 422 47 9 72 42 58 78 -12 31 -71 81 -129 109 -57 28
-151 24 -204 -9 -21 -13 -144 -153 -291 -330 -140 -169 -264 -316 -276 -326
-31 -28 -124 -33 -189 -12 -69 23 -162 122 -183 192 -17 59 -15 143 3 179 23
43 654 631 691 643 17 5 60 10 94 11 52 1 66 -3 92 -25z m2215 -23 c22 -25 19
-119 -5 -134 -28 -17 -69 1 -84 37 -32 77 38 153 89 97z m-1931 -379 c52 -36
59 -52 23 -52 -54 0 -135 -73 -323 -289 l-186 -213 -24 31 c-13 16 -37 41 -54
54 l-30 23 186 225 c102 123 200 232 218 242 50 28 130 19 190 -21z m4060 -4
c29 -16 76 -66 150 -158 195 -244 223 -283 208 -288 -8 -2 -31 -20 -51 -38
-21 -19 -39 -34 -42 -34 -3 0 -59 62 -125 138 -154 176 -243 266 -282 286 -16
9 -53 21 -81 27 -27 6 -50 14 -50 18 0 12 73 61 106 71 43 14 120 4 167 -22z
m-3457 -80 c60 -64 114 -138 143 -195 16 -33 21 -60 21 -125 l-1 -83 -34 37
c-22 24 -41 59 -54 106 -12 38 -28 75 -36 82 -26 21 -28 -30 -5 -98 21 -61 52
-213 45 -220 -2 -2 -38 15 -79 37 -73 41 -75 43 -82 86 -7 53 2 144 22 200 18
52 18 102 -1 155 -31 87 -10 93 61 18z m2714 45 c0 -5 -7 -30 -15 -57 -17 -56
-19 -119 -5 -145 17 -33 29 -144 23 -217 l-6 -72 -78 -42 c-44 -23 -79 -38
-79 -33 0 35 33 199 50 245 22 63 25 94 10 103 -13 8 -35 -31 -54 -97 -15 -54
-57 -118 -77 -118 -5 0 -9 35 -9 77 0 67 4 83 31 132 62 110 164 231 194 231
8 0 15 -3 15 -7z m-377 -185 c-6 -7 -14 -28 -18 -45 -5 -23 -54 -85 -173 -213
l-166 -180 -21 20 c-33 31 -76 35 -107 11 -35 -28 -86 -131 -94 -191 -5 -38
-11 -49 -28 -53 -39 -10 -242 -29 -260 -26 -12 3 23 31 105 86 220 145 501
365 679 531 47 44 87 78 89 76 2 -2 -1 -9 -6 -16z m-2555 -12 c15 -8 42 -30
61 -49 l33 -35 -18 -59 c-9 -32 -19 -60 -20 -61 -1 -2 -20 8 -41 22 -32 22
-40 36 -54 89 -9 34 -20 72 -24 85 -6 18 -4 22 14 22 12 0 34 -6 49 -14z
m3132 2 c0 -7 -7 -33 -16 -57 -8 -25 -14 -62 -12 -84 2 -35 -1 -41 -42 -68
l-45 -31 -3 24 c-1 13 -10 47 -19 75 -17 51 -16 54 3 80 41 55 134 97 134 61z
m-488 -87 c19 -56 13 -194 -14 -286 -21 -72 -26 -82 -58 -97 -19 -9 -38 -17
-42 -18 -23 -1 0 203 28 247 18 29 18 43 -1 43 -38 0 -160 -199 -186 -302 -10
-44 -15 -49 -51 -58 -21 -6 -46 -14 -54 -17 -11 -4 -14 5 -14 43 1 66 27 120
94 190 63 65 193 230 227 288 20 35 22 36 40 20 10 -9 24 -33 31 -53z m-2137
30 c21 -41 166 -223 237 -297 65 -68 88 -114 88 -175 0 -31 -3 -40 -14 -36 -8
3 -32 11 -54 18 -37 11 -42 17 -57 63 -38 116 -151 286 -191 286 -18 0 -18
-24 -1 -39 8 -6 19 -28 25 -48 15 -52 27 -183 16 -183 -5 0 -28 8 -51 17 -40
17 -43 22 -60 83 -25 91 -25 251 1 303 22 45 40 47 61 8z m501 -406 c9 -14 19
-55 22 -91 5 -67 5 -67 -19 -61 -13 3 -41 9 -62 13 -21 3 -41 13 -44 21 -14
36 43 143 76 143 6 0 18 -11 27 -25z m1132 3 c26 -28 42 -70 42 -108 0 -24 -5
-31 -27 -36 -37 -8 -64 -14 -86 -21 -17 -5 -18 0 -12 64 8 73 28 123 49 123 7
0 22 -10 34 -22z"/>
<path d="M2980 5683 c-64 -6 -80 -13 -80 -32 0 -10 9 -26 20 -36 19 -17 20
-31 20 -214 0 -170 -3 -202 -19 -237 -10 -23 -16 -46 -12 -52 4 -7 62 -14 147
-18 l140 -7 22 28 c22 28 27 59 16 89 -10 25 -27 19 -51 -18 -18 -29 -31 -36
-68 -42 -64 -9 -91 5 -98 53 -10 58 -8 148 3 178 11 29 23 30 88 4 39 -16 52
-4 52 49 0 39 -20 50 -52 28 -61 -43 -105 0 -93 92 4 31 12 63 17 70 17 20 69
14 105 -14 52 -40 72 -10 33 54 -19 31 -21 32 -87 30 -38 0 -84 -3 -103 -5z"/>
<path d="M4600 5685 c-10 -12 -7 -20 14 -46 30 -35 29 -31 26 -279 -2 -170 -4
-187 -22 -207 -35 -38 -18 -53 62 -53 81 0 95 13 61 56 -17 21 -21 41 -21 94
0 79 18 108 43 68 76 -123 129 -198 147 -208 41 -22 80 11 45 40 -23 19 -115
177 -115 198 0 11 15 31 34 46 59 44 79 88 74 158 -4 54 -8 64 -40 94 -46 42
-91 54 -204 54 -69 0 -95 -4 -104 -15z m214 -46 c25 -12 54 -60 57 -95 4 -44
-3 -65 -32 -99 -24 -27 -39 -35 -65 -35 -47 0 -55 21 -48 127 8 109 26 130 88
102z"/>
<path d="M5297 5693 c-66 -5 -76 -16 -53 -62 13 -24 16 -68 16 -234 0 -202 0
-205 -25 -241 -14 -21 -23 -42 -20 -47 4 -5 42 -9 86 -9 70 0 79 2 79 18 0 10
-7 27 -15 38 -12 15 -14 61 -15 232 0 199 1 216 20 239 24 31 26 59 4 67 -9 3
-16 5 -17 4 -1 -1 -28 -3 -60 -5z"/>
<path d="M2293 5680 c-23 -9 -32 -40 -13 -40 21 0 62 -82 110 -225 28 -82 55
-159 59 -170 5 -11 14 -39 20 -62 15 -54 47 -86 72 -73 21 12 23 17 93 277 31
112 62 216 71 233 20 39 7 60 -39 60 -51 0 -63 -13 -48 -53 7 -18 12 -45 12
-59 0 -35 -57 -259 -69 -271 -21 -21 -39 5 -74 105 -61 177 -63 185 -44 218
30 50 6 70 -83 69 -25 0 -55 -4 -67 -9z"/>
<path d="M4372 3480 c-34 -4 -74 -13 -88 -21 -35 -18 -64 -79 -64 -133 0 -56
32 -96 131 -161 37 -26 78 -59 89 -75 28 -39 26 -85 -6 -117 -21 -21 -32 -24
-61 -20 -49 8 -82 33 -99 73 -29 69 -64 32 -56 -59 l5 -57 33 6 c22 4 49 0 75
-10 37 -15 46 -15 93 -2 80 23 116 73 116 160 0 61 -31 101 -130 169 -96 65
-119 90 -120 129 0 66 87 77 143 18 30 -32 42 -36 53 -19 8 13 8 82 -1 109 -7
21 -10 22 -113 10z"/>
<path d="M3610 3504 c-26 -15 -200 -14 -266 1 -30 7 -31 6 -48 -53 -27 -88
-11 -105 47 -47 19 19 44 35 55 35 41 0 44 -19 43 -242 -2 -195 -3 -215 -21
-240 -25 -34 -26 -64 -2 -70 9 -2 46 -2 82 1 52 5 65 10 68 24 2 10 -3 26 -11
35 -12 13 -16 63 -21 233 -4 119 -4 224 0 233 8 22 37 20 59 -4 32 -35 59 -22
69 32 13 76 -1 92 -54 62z"/>
<path d="M6290 2933 c0 -5 16 -41 37 -81 36 -71 37 -74 42 -220 6 -138 7 -147
26 -147 16 0 21 8 23 38 4 52 18 46 26 -12 6 -46 29 -82 43 -67 4 3 6 33 5 65
-3 109 -89 337 -151 399 -31 31 -51 40 -51 25z"/>
<path d="M7122 2240 c-28 -17 -84 -60 -122 -96 -72 -68 -83 -93 -57 -128 12
-17 21 -10 111 82 53 55 115 112 137 127 21 15 39 32 39 36 0 19 -58 7 -108
-21z"/>
<path d="M1542 2914 c-65 -51 -162 -299 -162 -414 0 -45 4 -60 14 -60 16 0 36
50 36 92 0 17 4 27 10 23 6 -3 10 -22 10 -41 0 -31 3 -35 23 -32 21 3 22 8 28
138 6 142 16 188 56 257 32 55 26 69 -15 37z"/>
<path d="M650 2259 c-12 -8 -12 -12 -2 -16 28 -11 131 -104 192 -172 64 -72
83 -83 94 -55 14 35 2 55 -73 127 -100 95 -179 139 -211 116z"/>
<path d="M2123 1492 c23 -24 26 -33 18 -54 -13 -36 -269 -454 -299 -489 -20
-25 -30 -29 -53 -24 -39 9 -36 1 9 -26 20 -12 65 -40 100 -62 34 -22 66 -37
69 -33 4 3 -3 13 -15 22 -39 27 -28 60 75 226 l54 87 122 -75 c67 -41 123 -78
125 -82 4 -12 -136 -234 -159 -254 -16 -14 -25 -15 -41 -7 -23 12 -40 1 -18
-12 8 -5 55 -34 104 -64 49 -31 92 -53 95 -49 3 3 -4 14 -16 24 -13 10 -23 29
-23 42 0 13 61 125 136 248 180 298 169 283 210 277 19 -3 34 -3 34 1 -1 9
-178 116 -199 120 -10 2 -5 -7 12 -23 15 -14 27 -29 27 -33 0 -6 -82 -152
-119 -211 -7 -11 -35 2 -135 63 -69 43 -126 81 -126 84 1 4 30 52 65 107 63
100 64 100 101 98 32 -2 36 -1 24 10 -21 18 -186 117 -196 117 -4 0 5 -13 19
-28z"/>
<path d="M5459 1322 c-66 -27 -329 -194 -322 -205 3 -5 10 -4 16 2 17 17 52
13 69 -6 20 -23 262 -413 288 -464 24 -47 25 -57 3 -81 -25 -28 1 -21 59 15
29 19 85 50 124 71 162 84 234 214 204 362 -26 123 -112 246 -207 294 -64 33
-169 38 -234 12z m162 -92 c24 -12 65 -45 91 -72 104 -109 146 -266 96 -353
-41 -70 -144 -130 -192 -112 -7 3 -63 83 -123 179 -189 299 -187 296 -173 314
14 16 78 52 120 65 41 14 133 3 181 -21z"/>
<path d="M2695 849 c-120 -144 -229 -268 -241 -275 -13 -9 -32 -12 -48 -8 -14
3 -26 2 -26 -3 0 -9 155 -73 175 -73 5 0 -1 9 -13 20 -19 18 -20 24 -11 43 22
41 111 147 123 147 7 0 44 -13 82 -28 l69 -29 -2 -109 c-2 -85 -6 -111 -18
-120 -12 -9 -2 -17 57 -41 120 -50 147 -53 94 -12 -13 10 -26 33 -30 51 -3 18
1 157 9 308 17 317 18 390 7 390 -5 0 -107 -117 -227 -261z m134 -24 c-5 -61
-11 -115 -12 -121 -1 -8 -25 -3 -69 15 l-67 26 77 97 c42 53 77 96 79 95 1 -1
-3 -52 -8 -112z"/>
<path d="M4763 992 c-122 -45 -155 -66 -88 -55 34 5 36 4 56 -42 43 -97 180
-482 185 -521 6 -36 3 -44 -16 -54 -12 -6 -19 -14 -16 -17 7 -8 216 70 216 81
0 4 -12 5 -26 2 -18 -5 -32 -2 -44 9 -25 22 -96 213 -84 225 5 5 23 12 40 16
26 5 41 -3 118 -65 152 -122 182 -132 277 -95 63 25 69 34 21 34 -24 0 -57 7
-75 16 -43 22 -257 175 -257 184 0 4 7 24 16 45 19 47 20 141 1 186 -8 19 -31
49 -51 67 -54 47 -114 44 -273 -16z m184 -32 c58 -35 104 -161 83 -225 -8 -25
-21 -37 -51 -49 -22 -9 -44 -16 -50 -16 -12 0 -27 35 -80 183 l-39 108 23 9
c37 15 80 11 114 -10z"/>
<path d="M3180 984 c0 -5 14 -17 31 -27 38 -21 40 -8 -35 -342 -66 -296 -66
-295 -108 -295 -56 0 -17 -16 95 -39 106 -22 152 -22 89 0 -18 6 -32 18 -33
27 -2 38 3 81 20 157 17 78 18 80 46 78 48 -4 52 -9 80 -95 40 -122 79 -203
106 -222 22 -15 47 -23 122 -40 34 -8 36 11 2 24 -35 13 -67 68 -126 214 l-51
128 50 44 c117 102 125 253 17 315 -17 10 -85 30 -153 44 -67 14 -129 28 -137
32 -8 3 -15 1 -15 -3z m223 -95 c75 -34 78 -203 5 -281 -26 -28 -32 -30 -71
-24 -69 11 -70 14 -35 174 29 133 32 142 54 142 13 0 34 -5 47 -11z"/>
<path d="M4350 913 c0 -4 -27 -160 -59 -346 -61 -348 -70 -377 -113 -377 -10
0 -18 -5 -18 -11 0 -8 14 -10 43 -5 23 3 66 9 95 13 55 6 82 23 37 23 -15 0
-28 7 -32 17 -9 22 17 196 30 205 5 3 35 9 66 13 31 3 66 9 78 12 19 4 28 -7
72 -96 30 -59 47 -103 41 -106 -35 -22 32 -22 158 0 39 7 42 25 4 25 -17 0
-38 10 -51 24 -13 14 -91 156 -175 317 -130 253 -176 328 -176 292z m119 -394
c1 -12 -15 -18 -64 -25 -36 -6 -67 -9 -68 -7 -2 2 26 200 33 233 2 10 99 -185
99 -201z"/>
<path d="M3594 878 c-2 -3 10 -9 26 -13 17 -4 37 -17 46 -30 8 -12 59 -166
113 -341 67 -217 103 -319 112 -319 9 0 60 113 139 310 69 171 131 320 138
332 7 13 24 26 37 29 53 13 21 24 -71 24 -61 0 -93 -4 -89 -10 3 -5 15 -10 26
-10 13 0 19 -7 19 -22 0 -35 -164 -479 -171 -465 -15 26 -130 458 -127 474 2
9 14 20 28 24 18 4 21 8 10 12 -22 9 -231 13 -236 5z"/>
</g>
</svg>
